<?xml version="1.0" encoding="iso-8859-1"?>
<!-- Generator: Adobe Illustrator 19.1.0, SVG Export Plug-In . SVG Version: 6.00 Build 0)  -->
<svg xmlns="http://www.w3.org/2000/svg" xmlns:xlink="http://www.w3.org/1999/xlink" version="1.1" id="Capa_1" x="0px" y="0px" viewBox="0 0 391.976 391.976" style="enable-background:new 0 0 391.976 391.976;" xml:space="preserve" width="512px" height="512px">
<g>
	<g>
	</g>
	<g>
	</g>
	<g>
	</g>
	<g>
	</g>
	<g>
	</g>
	<g>
	</g>
	<g>
	</g>
	<g>
	</g>
	<g>
	</g>
	<g>
	</g>
	<g>
	</g>
	<g>
	</g>
	<g>
	</g>
	<g>
	</g>
	<g>
	</g>
</g>
<g>
	<path d="M322.057,190.499c-4.938-31.178-17.04-50.221-37.478-58.283c0.064-1.949,0.113-3.905,0.113-5.87   c0-33.263-8.885-64.63-25.027-88.32C242.955,13.505,220.471,0,196.346,0s-46.61,13.505-63.315,38.026   C116.889,61.716,108,93.083,108,126.347c0,1.585,0.039,3.162,0.08,4.738c-21.72,7.384-35.532,26.993-41.966,59.433L41.238,326.582   l-0.25,0.631v0.64c0,35.332,29.014,64.124,64.346,64.124h181.661c35.327,0,63.992-28.792,63.992-64.124v-0.745L322.057,190.499z    M122.169,126.347c0-61.855,33.278-112.182,74.18-112.182c40.907,0,74.185,50.323,74.185,112.182c0,0.742-0.024,1.609-0.035,2.348   c-3.895-0.561-8.007-0.718-12.357-0.718H130.075c-2.714,0-5.333,0.009-7.879,0.261C122.189,127.65,122.169,126.936,122.169,126.347   z M130.075,141.976h128.066c21.798,0,42.942,6.137,49.988,50.961l2.898,13.645l-84.971,33.751   c-6.382-9.752-17.394-16.217-29.894-16.217c-11.746,0-22.183,5.699-28.694,14.478L79.269,197.38l0.765-4.165   C87.162,157.267,102.129,141.976,130.075,141.976z M217.703,259.825c0,11.876-9.664,21.54-21.54,21.54   c-11.876,0-21.54-9.664-21.54-21.54s9.664-21.54,21.54-21.54C208.039,238.285,217.703,247.945,217.703,259.825z M286.996,377.976   H105.334c-27.311,0-49.573-22.16-49.902-49.395L76.648,211.85l84.811,39.608c-0.651,2.693-1.005,5.487-1.005,8.377   c0,19.691,16.018,35.703,35.709,35.703c19.692,0,35.709-16.021,35.709-35.713c0-2.162-0.204-4.279-0.574-6.336l82.711-32.867   l22.889,108.061C336.511,355.869,314.274,377.976,286.996,377.976z" fill="#fd7d82"/>
	<path d="M313.146,326.976H77.613c-3.115,0-5.642,3.087-5.642,7c0,3.912,2.522,7,5.642,7h235.534   c3.115,0,5.642-3.087,5.642-7C318.788,330.064,316.261,326.976,313.146,326.976z" fill="#fd7d82"/>
</g>
<g>
</g>
<g>
</g>
<g>
</g>
<g>
</g>
<g>
</g>
<g>
</g>
<g>
</g>
<g>
</g>
<g>
</g>
<g>
</g>
<g>
</g>
<g>
</g>
<g>
</g>
<g>
</g>
<g>
</g>
</svg>
