<?xml version="1.0" encoding="iso-8859-1"?>
<!-- Generator: Adobe Illustrator 19.0.0, SVG Export Plug-In . SVG Version: 6.00 Build 0)  -->
<svg xmlns="http://www.w3.org/2000/svg" xmlns:xlink="http://www.w3.org/1999/xlink" version="1.1" id="Layer_1" x="0px" y="0px" viewBox="0 0 512 512" style="enable-background:new 0 0 512 512;" xml:space="preserve" width="512px" height="512px">
<g>
	<g>
		<path d="M413.72,30.825c-3.072-3.049-8.033-3.03-11.083,0.043l-104.179,104.99l-33.214-33.471    c-2.461-2.481-5.744-3.848-9.243-3.848c-3.499,0-6.781,1.368-9.243,3.847l-36.229,36.51L103.334,30.867    c-3.051-3.073-8.012-3.091-11.083-0.043s-3.091,8.01-0.043,11.082l107.28,108.115l-28.653,28.877    c-5.048,5.088-5.048,13.367,0,18.456l75.922,76.513c2.462,2.481,5.744,3.848,9.243,3.848c3.499,0,6.781-1.368,9.243-3.847    l30.914-31.155c3.048-3.072,3.028-8.033-0.043-11.082c-3.072-3.048-8.033-3.03-11.083,0.043l-29.03,29.257l-72.242-72.804    L256,115.322l72.242,72.804l-24.547,24.738c-3.048,3.072-3.028,8.033,0.044,11.082c3.07,3.048,8.031,3.029,11.082-0.043    l26.344-26.55c5.048-5.088,5.048-13.367,0-18.456l-31.668-31.914L413.763,41.907C416.811,38.835,416.791,33.873,413.72,30.825z" fill="#fd7d82"/>
	</g>
</g>
<g>
	<g>
		<path d="M298.577,388.343l-37.014-37.303c-1.471-1.483-3.474-2.317-5.563-2.317s-4.092,0.834-5.563,2.317l-37.014,37.302    c-3.031,3.056-3.031,7.985,0,11.039l37.014,37.303c1.471,1.483,3.474,2.317,5.563,2.317s4.092-0.834,5.563-2.317l37.014-37.302    C301.609,396.326,301.609,391.397,298.577,388.343z M256,420.039l-25.974-26.177L256,367.686l25.974,26.177L256,420.039z" fill="#fd7d82"/>
	</g>
</g>
<g>
	<g>
		<path d="M298.577,182.606l-37.014-37.302c-1.471-1.484-3.474-2.318-5.563-2.318s-4.092,0.835-5.563,2.318l-37.014,37.302    c-3.031,3.055-3.031,7.984,0,11.039l37.014,37.302c1.471,1.483,3.474,2.318,5.563,2.318s4.092-0.835,5.563-2.318l37.014-37.302    C301.609,190.591,301.609,185.662,298.577,182.606z M256,214.302l-25.974-26.177L256,161.95l25.974,26.177L256,214.302z" fill="#fd7d82"/>
	</g>
</g>
<g>
	<g>
		<path d="M509.682,130.654c-3.07-3.049-8.033-3.03-11.082,0.043l-40.341,40.656l-3.945-3.976c-2.461-2.482-5.744-3.848-9.243-3.848    s-6.781,1.367-9.243,3.847l-21.158,21.32c-5.049,5.088-5.049,13.367,0.001,18.456l4.032,4.064l-33.316,33.575l-13.364-13.469    c-2.461-2.482-5.744-3.848-9.243-3.848c-3.499,0-6.781,1.367-9.243,3.847l-40.423,40.737c-5.048,5.088-5.048,13.367,0,18.456    l13.451,13.557l-32.672,32.925l-28.651-28.874c-2.461-2.482-5.744-3.848-9.243-3.848c-3.499,0-6.781,1.367-9.243,3.847    l-28.651,28.875l-32.672-32.926l13.452-13.556c5.048-5.088,5.048-13.367-0.001-18.456l-4.822-4.859    c-3.048-3.074-8.01-3.09-11.082-0.043c-3.071,3.048-3.091,8.01-0.042,11.082l3.025,3.048l-36.744,37.03l-36.743-37.029    l36.743-37.028l15.056,15.172c3.049,3.073,8.011,3.09,11.082,0.043c3.071-3.049,3.091-8.011,0.042-11.082l-16.938-17.068    c-2.461-2.482-5.744-3.848-9.243-3.848c-3.499,0-6.781,1.367-9.243,3.847l-13.365,13.469l-33.312-33.575l4.033-4.065    c5.048-5.088,5.048-13.367-0.001-18.456l-21.156-21.318c-2.461-2.482-5.744-3.848-9.243-3.848c-3.499,0-6.781,1.367-9.243,3.847    l-3.946,3.977L13.4,130.697c-3.051-3.072-8.013-3.09-11.082-0.043c-3.073,3.049-3.092,8.01-0.044,11.082l40.428,40.743    l-6.169,6.217c-5.048,5.088-5.048,13.367,0,18.456l21.155,21.319c2.461,2.481,5.744,3.848,9.243,3.848    c3.499,0,6.781-1.368,9.242-3.847l6.084-6.131l33.315,33.575l-16.018,16.143c-5.048,5.088-5.048,13.367,0,18.456l40.423,40.737    c2.461,2.481,5.744,3.848,9.243,3.848c3.499,0,6.781-1.368,9.243-3.847l15.933-16.057l32.671,32.925l-36.231,36.513    c-5.048,5.088-5.048,13.367,0,18.456l75.922,76.512c2.462,2.482,5.744,3.848,9.243,3.848s6.781-1.367,9.243-3.847l42.212-42.54    c3.048-3.072,3.028-8.035-0.043-11.082c-3.072-3.049-8.033-3.03-11.083,0.043L256,466.665l-72.242-72.803L256,321.06    l72.242,72.803l-13.25,13.353c-3.048,3.072-3.028,8.033,0.043,11.082c3.071,3.048,8.033,3.029,11.083-0.043l15.047-15.166    c5.048-5.088,5.048-13.367,0-18.456l-36.231-36.512l32.672-32.925l15.932,16.056c2.461,2.481,5.744,3.848,9.243,3.848    c3.499,0,6.781-1.368,9.243-3.847l40.423-40.74c5.048-5.088,5.048-13.367,0-18.456l-16.018-16.143l33.314-33.574l6.084,6.131    c2.461,2.481,5.744,3.847,9.243,3.847c3.499,0,6.781-1.368,9.243-3.847l21.154-21.321c5.048-5.088,5.048-13.367,0-18.456    l-6.169-6.216l40.428-40.743C512.774,138.664,512.755,133.703,509.682,130.654z M66.931,215.535l-17.475-17.611l17.475-17.611    l17.476,17.611L66.931,215.535z M399.523,281.287l-36.743,37.03l-36.743-37.03l36.743-37.028L399.523,281.287z M445.069,215.535    l-17.476-17.611l17.477-17.612l17.475,17.612L445.069,215.535z" fill="#fd7d82"/>
	</g>
</g>
<g>
</g>
<g>
</g>
<g>
</g>
<g>
</g>
<g>
</g>
<g>
</g>
<g>
</g>
<g>
</g>
<g>
</g>
<g>
</g>
<g>
</g>
<g>
</g>
<g>
</g>
<g>
</g>
<g>
</g>
</svg>
