<?xml version="1.0" encoding="iso-8859-1"?>
<!-- Generator: Adobe Illustrator 18.0.0, SVG Export Plug-In . SVG Version: 6.00 Build 0)  -->
<!DOCTYPE svg PUBLIC "-//W3C//DTD SVG 1.1//EN" "http://www.w3.org/Graphics/SVG/1.1/DTD/svg11.dtd">
<svg xmlns="http://www.w3.org/2000/svg" xmlns:xlink="http://www.w3.org/1999/xlink" version="1.1" id="Capa_1" x="0px" y="0px" viewBox="0 0 385.019 385.019" style="enable-background:new 0 0 385.019 385.019;" xml:space="preserve" width="512px" height="512px">
<g>
	<path d="M376.022,165.367c0-0.012,0.001-0.023,0.001-0.035l-1.178-97.995c0-0.012-0.002-0.024-0.002-0.036   c-0.059-30.391-24.669-55.127-55.014-55.387c0,0-75.634-11.915-76.153-11.915H141.338c-0.359,0-76.152,11.914-76.152,11.914   c-30.345,0.259-54.955,24.997-55.013,55.388c0,0.012-0.003,0.023-0.003,0.036l-1.176,97.995c0,0.012,0.002,0.023,0.002,0.035   c0,0.012-0.002,0.023-0.002,0.035v21.991c0,3.313,2.687,6,6,6h53.554L67.46,302.18c0,0.04-0.001,0.081-0.001,0.122   c0,8.694,1.735,17.064,5.163,24.922c-3.427,7.858-5.163,16.228-5.163,24.922v26.873c0,3.314,2.687,6,6,6h236.768   c1.591,0,3.118-0.632,4.243-1.757c1.125-1.125,1.757-2.652,1.757-4.243l-0.002-26.872c0-8.693-1.734-17.063-5.161-24.921   c3.428-7.858,5.163-16.227,5.163-24.922c0-0.023,0-0.046,0-0.069l-1.089-108.839h54.886c3.314,0,6-2.687,6-6v-21.991   C376.024,165.391,376.022,165.379,376.022,165.367z M246.874,12.607l5.55,0.871L242.34,52.473l-23.053-12.076   C229.653,32.347,240.809,22.318,246.874,12.607z M232.479,12c-6.927,8.229-17.605,16.917-27.055,23.787   c-0.692,0.319-9.847,6.879-12.918,8.839c-3.067-1.958-12.227-8.527-12.931-8.849c-9.447-6.868-20.118-15.552-27.041-23.777H232.479   z M165.728,40.399l-23.049,12.074l-10.089-39.015l5.539-0.872C144.19,22.305,155.354,32.342,165.728,40.399z M20.995,181.394   v-9.989h46.465v9.989H20.995z M298.677,328.854c-0.001,0.001-0.001,0.001,0.001,0.003c0.048,0.169,0.103,0.336,0.166,0.501   c0.074,0.194,0.157,0.384,0.25,0.569c3.404,6.939,5.13,14.414,5.13,22.219l0.001,20.872H79.459v-20.873   c0-7.806,1.727-15.28,5.132-22.218c0.085-0.17,0.163-0.343,0.232-0.52c0-0.001,0.001-0.002,0.001-0.004   c0-0.001,0.001-0.002,0.001-0.003c0.075-0.193,0.14-0.389,0.194-0.587c0.142-0.515,0.215-1.05,0.216-1.59   c0-0.884-0.195-1.782-0.608-2.629c0,0-0.001-0.001-0.001-0.001c-0.001-0.002-0.002-0.005-0.004-0.007c0-0.001,0-0.001-0.001-0.003   c-0.001-0.003-0.003-0.006-0.004-0.009c-3.419-6.945-5.154-14.428-5.159-22.243l2-199.924c0.033-3.313-2.626-6.027-5.939-6.06   c-0.021,0-0.041,0-0.062,0c-3.285,0-5.965,2.647-5.998,5.94l-0.571,57.116H21.067l1.103-91.921c0-0.012-0.001-0.023-0.001-0.035   c0-0.012,0.002-0.024,0.002-0.037c0-23.985,19.513-43.498,43.498-43.498c0.312,0,55.01-8.58,55.01-8.58L132.954,62.8   c0.458,1.773,1.702,3.239,3.375,3.982c0.776,0.344,1.605,0.516,2.434,0.516c0.958,0,1.914-0.229,2.784-0.685l34.931-18.298   c3.79,2.652,7.057,4.803,9.365,6.285v31.569c0,3.313,2.686,6,6,6c3.313,0,6-2.687,6-6V55.444c2.281-1.442,6.103-3.919,10.693-7.131   l34.935,18.3c0.87,0.456,1.826,0.685,2.784,0.685c0.828,0,1.657-0.171,2.434-0.516c1.674-0.743,2.917-2.209,3.376-3.982   l12.271-47.451c0,0,54.701,8.564,55.013,8.564c23.985,0,43.498,19.513,43.498,43.497c0,0.012,0.002,0.024,0.002,0.037   c0,0.012-0.002,0.023-0.002,0.036l1.105,91.921h-49.153l-0.571-57.116c-0.033-3.313-2.758-5.997-6.06-5.939   c-3.314,0.033-5.973,2.746-5.939,6.06l1.999,199.895c0,7.825-1.735,15.318-5.159,22.272c-0.001,0.003-0.003,0.006-0.004,0.009   c0,0.001-0.001,0.001-0.001,0.003c-0.001,0.002-0.002,0.005-0.004,0.007c0,0.001,0,0.001,0,0.001   c-0.001,0.003-0.003,0.006-0.004,0.009c0,0,0,0,0,0.001c-0.411,0.845-0.604,1.739-0.604,2.62   C298.451,327.778,298.528,328.327,298.677,328.854z M315.018,181.394l-0.051-9.989h49.057v9.989H315.018z" fill="#fd7d82"/>
	<path d="M259.395,104.783h-10.472c-3.314,0-6,2.687-6,6c0,3.313,2.686,6,6,6h10.472c3.314,0,6-2.687,6-6   C265.395,107.469,262.708,104.783,259.395,104.783z" fill="#fd7d82"/>
</g>
<g>
</g>
<g>
</g>
<g>
</g>
<g>
</g>
<g>
</g>
<g>
</g>
<g>
</g>
<g>
</g>
<g>
</g>
<g>
</g>
<g>
</g>
<g>
</g>
<g>
</g>
<g>
</g>
<g>
</g>
</svg>
